<svg width="20" height="20" viewBox="0 0 20 20" fill="none" xmlns="http://www.w3.org/2000/svg">
<circle cx="10" cy="10" r="10" fill="#FF5E03"/>
<path d="M15.6568 4.34313C14.1458 2.83216 12.1369 2 10 2C7.86312 2 5.85416 2.83216 4.34316 4.34313C2.83213 5.85416 2 7.86312 2 10C2 12.1369 2.83213 14.1458 4.34316 15.6569C5.85416 17.1678 7.86312 18 10 18C12.1369 18 14.1458 17.1678 15.6568 15.6569C17.1679 14.1458 18 12.1369 18 10C18 7.86312 17.1679 5.85416 15.6568 4.34313ZM10 17.375C5.93341 17.375 2.625 14.0666 2.625 10C2.625 5.93341 5.93341 2.625 10 2.625C14.0666 2.625 17.375 5.93341 17.375 10C17.375 14.0666 14.0666 17.375 10 17.375Z" fill="black"/>
<path d="M10.0008 3.94843C6.66394 3.94843 3.94922 6.66314 3.94922 9.99999C3.94922 13.3368 6.66394 16.0515 10.0008 16.0515C13.3376 16.0515 16.0523 13.3368 16.0523 9.99999C16.0523 6.66314 13.3376 3.94843 10.0008 3.94843ZM10.0008 15.4265C7.00856 15.4265 4.57422 12.9922 4.57422 9.99999C4.57422 7.00777 7.00856 4.57343 10.0008 4.57343C12.993 4.57343 15.4273 7.00777 15.4273 9.99999C15.4273 12.9922 12.993 15.4265 10.0008 15.4265Z" fill="black"/>
<path d="M12.6985 9.68748H11.0986C10.9906 9.30842 10.6913 9.00911 10.3122 8.90117V6.04587C10.3122 5.87327 10.1723 5.73337 9.99971 5.73337C9.82711 5.73337 9.68721 5.87331 9.68721 6.04587V8.90117C9.20877 9.03742 8.85742 9.47845 8.85742 9.99998C8.85742 10.6298 9.36986 11.1423 9.99971 11.1423C10.5212 11.1423 10.9623 10.7909 11.0986 10.3125H12.6985C12.8711 10.3125 13.011 10.1725 13.011 9.99998C13.011 9.82739 12.8711 9.68748 12.6985 9.68748ZM9.99971 10.5173C9.71449 10.5173 9.48242 10.2852 9.48242 9.99998C9.48242 9.71476 9.71449 9.4827 9.99971 9.4827C10.2849 9.4827 10.517 9.71476 10.517 9.99998C10.517 10.2852 10.2849 10.5173 9.99971 10.5173Z" fill="black"/>
</svg>
