<svg width="20" height="20" viewBox="0 0 20 20" fill="none" xmlns="http://www.w3.org/2000/svg">
<circle cx="10" cy="10" r="10" fill="#FF5E03"/>
<path d="M13.9409 9.09383C13.7902 9.09387 13.6428 9.04922 13.5175 8.96552C13.3922 8.88183 13.2945 8.76284 13.2368 8.62362C13.1791 8.48439 13.164 8.33118 13.1933 8.18336C13.2227 8.03555 13.2953 7.89976 13.4018 7.79318C13.5084 7.6866 13.6441 7.61401 13.7919 7.58459C13.9397 7.55517 14.0929 7.57025 14.2322 7.62791C14.3714 7.68557 14.4904 7.78324 14.5742 7.90854C14.6579 8.03385 14.7026 8.18117 14.7026 8.33188C14.7024 8.53385 14.622 8.72749 14.4792 8.87033C14.3365 9.01317 14.1428 9.09354 13.9409 9.09383ZM13.9409 8.00258C13.8757 8.00254 13.8119 8.02183 13.7577 8.05803C13.7035 8.09422 13.6612 8.14568 13.6363 8.2059C13.6113 8.26612 13.6048 8.33239 13.6175 8.39633C13.6302 8.46027 13.6616 8.519 13.7077 8.5651C13.7537 8.6112 13.8125 8.64258 13.8764 8.65529C13.9404 8.668 14.0066 8.66146 14.0669 8.63649C14.1271 8.61152 14.1785 8.56925 14.2147 8.51503C14.2509 8.46081 14.2702 8.39707 14.2702 8.33188C14.27 8.24458 14.2353 8.16089 14.1736 8.09916C14.1119 8.03743 14.0282 8.0027 13.9409 8.00258Z" fill="black"/>
<path d="M3.8281 10.3864C3.49315 10.4008 3.16254 10.3063 2.88583 10.117C2.72754 9.98589 2.60349 9.81828 2.52439 9.62859C2.44529 9.43891 2.41351 9.23283 2.43178 9.02812C2.43246 8.97123 2.45554 8.9169 2.49601 8.87691C2.53649 8.83692 2.59109 8.81449 2.64799 8.8145H2.65059C2.70789 8.81518 2.76259 8.83859 2.80264 8.87958C2.8427 8.92057 2.86484 8.97578 2.86421 9.03309C2.84812 9.17004 2.86553 9.30884 2.91494 9.43757C2.96435 9.5663 3.04429 9.68111 3.14788 9.77211C3.5894 10.109 4.41534 9.87827 4.42356 9.87589C4.47822 9.86133 4.5364 9.86876 4.58564 9.8966C4.63488 9.92444 4.67126 9.97046 4.68696 10.0248C4.70266 10.0791 4.69643 10.1375 4.66963 10.1873C4.64282 10.2371 4.59756 10.2744 4.54356 10.2912C4.31012 10.3534 4.06967 10.3854 3.8281 10.3864Z" fill="black"/>
<path d="M14.0781 16.1784H12.4132C12.3559 16.1784 12.3009 16.1556 12.2603 16.115C12.2198 16.0745 12.197 16.0195 12.197 15.9621V14.7003C11.0521 14.9574 9.86446 14.9574 8.71958 14.7003V15.9621C8.71958 16.0195 8.6968 16.0745 8.65625 16.115C8.61571 16.1556 8.56071 16.1784 8.50337 16.1784H6.8385C6.78471 16.1786 6.73276 16.1588 6.69278 16.1229C6.6528 16.0869 6.62766 16.0373 6.62228 15.9838L6.3825 13.7053C5.03764 12.7911 4.26855 11.4761 4.26855 10.0837C4.26855 7.4309 7.04499 5.27285 10.4577 5.27285C11.0311 5.27248 11.6027 5.33461 12.1626 5.45815C12.868 5.16585 13.4387 4.62048 13.7626 3.92907C13.7764 3.89221 13.8001 3.85983 13.8309 3.83542C13.8618 3.811 13.8988 3.79547 13.9378 3.79051C13.9768 3.78555 14.0165 3.79134 14.0525 3.80726C14.0885 3.82318 14.1195 3.84863 14.1421 3.88085C14.8123 4.83631 14.5501 5.87004 14.3637 6.3509C15.1847 6.84785 15.8464 7.56927 16.2707 8.43004L17.2024 8.60042C17.305 8.61923 17.3978 8.67343 17.4646 8.75359C17.5314 8.83374 17.568 8.93478 17.568 9.03912V11.128C17.568 11.2324 17.5314 11.3335 17.4646 11.4136C17.3977 11.4938 17.3049 11.548 17.2022 11.5667L16.2707 11.7371C15.8782 12.5371 15.2781 13.217 14.533 13.7057L14.2932 15.9848C14.2876 16.038 14.2625 16.0872 14.2228 16.1229C14.1831 16.1586 14.1315 16.1784 14.0781 16.1784ZM12.6294 15.7459H13.8835L14.1135 13.5596C14.1169 13.5277 14.1272 13.4969 14.1439 13.4696C14.1606 13.4422 14.1832 13.4189 14.21 13.4013C14.9574 12.9337 15.5524 12.2585 15.9222 11.4581C15.9363 11.4256 15.9583 11.397 15.986 11.375C16.0138 11.3529 16.0466 11.3381 16.0815 11.3317L17.1246 11.141L17.1356 9.03912L16.0815 8.83523C16.0466 8.82884 16.0138 8.81396 15.986 8.7919C15.9583 8.76984 15.9363 8.74128 15.9222 8.70874C15.5108 7.82698 14.8318 7.09739 13.9819 6.62377C13.9354 6.59652 13.9009 6.55296 13.8849 6.50158C13.8689 6.4502 13.8726 6.3947 13.8954 6.34593C14.0154 6.09036 14.3362 5.27112 13.9739 4.45707C13.5692 5.10157 12.9707 5.60119 12.2642 5.88409C12.2228 5.90156 12.1769 5.90534 12.1332 5.8949C11.5833 5.76848 11.0209 5.70487 10.4567 5.70528C7.28239 5.70528 4.69991 7.66939 4.69991 10.0837C4.69991 11.357 5.4305 12.5663 6.70445 13.4009C6.73125 13.4184 6.7538 13.4418 6.77048 13.4691C6.78716 13.4965 6.79754 13.5272 6.80088 13.5591L7.0318 15.7459H8.28585V14.4421C8.28311 14.4077 8.28863 14.3732 8.30198 14.3414C8.31532 14.3095 8.33609 14.2813 8.36255 14.2592C8.38901 14.237 8.42038 14.2215 8.45406 14.214C8.48774 14.2064 8.52273 14.207 8.55612 14.2158C9.804 14.5432 11.1153 14.5424 12.3628 14.2136C12.3993 14.2039 12.4376 14.2039 12.4741 14.2135C12.5105 14.2232 12.5438 14.2422 12.5706 14.2687C12.5974 14.2953 12.6168 14.3283 12.6269 14.3647C12.637 14.401 12.6374 14.4393 12.6281 14.4759L12.6294 15.7459Z" fill="black"/>
<path d="M7.41166 6.15196C7.36028 6.15205 7.31057 6.13372 7.27155 6.10028C6.90465 5.78788 6.63415 5.37759 6.49162 4.91727C6.34908 4.45695 6.34039 3.96559 6.46656 3.50052C6.59273 3.03545 6.84856 2.61585 7.20418 2.29068C7.55981 1.96551 8.00058 1.74817 8.47506 1.66403C8.94954 1.57989 9.43816 1.63242 9.88392 1.81548C10.3297 1.99855 10.7142 2.3046 10.9926 2.69793C11.271 3.09126 11.4318 3.55564 11.4562 4.0369C11.4806 4.51816 11.3677 4.99645 11.1306 5.41596C11.1021 5.46579 11.0551 5.50228 10.9997 5.51741C10.9444 5.53253 10.8853 5.52505 10.8355 5.4966C10.7856 5.46816 10.7491 5.42109 10.734 5.36574C10.7189 5.31039 10.7264 5.2513 10.7548 5.20147C10.9338 4.88617 11.0277 4.52967 11.027 4.16709C11.0271 3.81324 10.9382 3.46505 10.7684 3.15461C10.5986 2.84418 10.3533 2.58148 10.0553 2.39074C9.75723 2.2 9.41597 2.08734 9.06295 2.06317C8.70992 2.03899 8.35649 2.10406 8.03523 2.25239C7.71396 2.40072 7.4352 2.62753 7.22464 2.91191C7.01408 3.1963 6.87849 3.52911 6.83037 3.87967C6.78226 4.23024 6.82315 4.58728 6.9493 4.91788C7.07545 5.24848 7.28278 5.54201 7.5522 5.77142C7.58579 5.80014 7.60977 5.83848 7.62091 5.88125C7.63205 5.92402 7.62981 5.96918 7.6145 6.01065C7.59919 6.05211 7.57154 6.08788 7.53527 6.11315C7.499 6.13842 7.45586 6.15196 7.41166 6.15196Z" fill="black"/>
<path d="M8.91899 4.67784C8.76231 4.67482 8.61 4.62559 8.48118 4.53633C8.35236 4.44708 8.25277 4.32177 8.1949 4.17612C8.13703 4.03048 8.12346 3.87099 8.15589 3.71766C8.18833 3.56434 8.26531 3.424 8.3772 3.31426C8.48908 3.20452 8.63088 3.13027 8.78481 3.10082C8.93874 3.07136 9.09793 3.08802 9.24243 3.1487C9.38692 3.20938 9.51028 3.31138 9.59702 3.44191C9.68377 3.57243 9.73003 3.72566 9.73002 3.88238C9.73002 3.93973 9.70724 3.99472 9.66669 4.03527C9.62614 4.07582 9.57115 4.0986 9.5138 4.0986C9.45646 4.0986 9.40146 4.07582 9.36092 4.03527C9.32037 3.99472 9.29759 3.93973 9.29759 3.88238C9.30078 3.8068 9.28128 3.73199 9.24161 3.66758C9.20193 3.60317 9.14388 3.55211 9.07494 3.52097C9.006 3.48982 8.92931 3.48002 8.85476 3.49282C8.7802 3.50563 8.71118 3.54045 8.65657 3.59281C8.60197 3.64516 8.56428 3.71266 8.54836 3.78662C8.53244 3.86058 8.53902 3.9376 8.56724 4.00779C8.59546 4.07798 8.64405 4.13812 8.70673 4.18046C8.76942 4.22281 8.84334 4.24543 8.91899 4.24541C8.97634 4.24541 9.03133 4.26819 9.07188 4.30874C9.11243 4.34929 9.13521 4.40428 9.13521 4.46163C9.13521 4.51897 9.11243 4.57397 9.07188 4.61451C9.03133 4.65506 8.97634 4.67784 8.91899 4.67784Z" fill="black"/>
<path d="M8.91943 5.83675C8.70646 5.83848 8.50149 5.75569 8.34946 5.60654C8.19743 5.45738 8.11074 5.25404 8.1084 5.04107C8.1084 4.98373 8.13118 4.92873 8.17173 4.88818C8.21228 4.84763 8.26727 4.82485 8.32462 4.82485C8.38196 4.82485 8.43695 4.84763 8.4775 4.88818C8.51805 4.92873 8.54083 4.98373 8.54083 5.04107C8.53768 5.11665 8.55722 5.19144 8.59692 5.25582C8.63663 5.3202 8.69469 5.37123 8.76364 5.40234C8.83259 5.43345 8.90927 5.44322 8.98381 5.43039C9.05836 5.41756 9.12736 5.38272 9.18194 5.33035C9.23652 5.27799 9.27419 5.21048 9.29009 5.13653C9.30599 5.06258 9.2994 4.98556 9.27117 4.91539C9.24294 4.84521 9.19435 4.78509 9.13167 4.74275C9.06899 4.70042 8.99507 4.67781 8.91943 4.67783C8.86208 4.67783 8.80709 4.65505 8.76654 4.6145C8.72599 4.57395 8.70321 4.51895 8.70321 4.46161C8.70321 4.40427 8.72599 4.34927 8.76654 4.30872C8.80709 4.26817 8.86208 4.24539 8.91943 4.24539C9.02548 4.24292 9.13095 4.26167 9.22965 4.30055C9.32835 4.33943 9.41828 4.39764 9.49416 4.47177C9.57004 4.5459 9.63033 4.63445 9.6715 4.73222C9.71267 4.82998 9.73387 4.93499 9.73387 5.04107C9.73387 5.14715 9.71267 5.25216 9.6715 5.34992C9.63033 5.44769 9.57004 5.53624 9.49416 5.61037C9.41828 5.6845 9.32835 5.74272 9.22965 5.78159C9.13095 5.82047 9.02548 5.83922 8.91943 5.83675Z" fill="black"/>
<path d="M8.91934 5.86033C8.86199 5.86033 8.807 5.83755 8.76645 5.797C8.7259 5.75645 8.70312 5.70146 8.70312 5.64411V5.62033C8.70312 5.56299 8.7259 5.50799 8.76645 5.46744C8.807 5.42689 8.86199 5.40411 8.91934 5.40411C8.97668 5.40411 9.03168 5.42689 9.07222 5.46744C9.11277 5.50799 9.13555 5.56299 9.13555 5.62033V5.64411C9.13555 5.70146 9.11277 5.75645 9.07222 5.797C9.03168 5.83755 8.97668 5.86033 8.91934 5.86033Z" fill="black"/>
<path d="M8.91934 3.51869C8.86199 3.51869 8.807 3.49591 8.76645 3.45536C8.7259 3.41481 8.70312 3.35982 8.70312 3.30247V3.06463C8.70312 3.00729 8.7259 2.9523 8.76645 2.91175C8.807 2.8712 8.86199 2.84842 8.91934 2.84842C8.97668 2.84842 9.03168 2.8712 9.07222 2.91175C9.11277 2.9523 9.13555 3.00729 9.13555 3.06463V3.30247C9.13555 3.35982 9.11277 3.41481 9.07222 3.45536C9.03168 3.49591 8.97668 3.51869 8.91934 3.51869Z" fill="black"/>
</svg>
