<svg width="22" height="22" viewBox="0 0 22 22" fill="none" xmlns="http://www.w3.org/2000/svg">
<path d="M10.9926 5.8843C10.4693 5.8843 9.95774 5.72912 9.52262 5.43838C9.08749 5.14764 8.74836 4.7344 8.54809 4.25091C8.34783 3.76743 8.29543 3.23542 8.39752 2.72216C8.49962 2.20889 8.75162 1.73743 9.12166 1.36739C9.4917 0.997346 9.96316 0.745344 10.4764 0.64325C10.9897 0.541155 11.5217 0.593554 12.0052 0.793819C12.4887 0.994084 12.9019 1.33322 13.1926 1.76835C13.4834 2.20347 13.6386 2.71504 13.6386 3.23835C13.6381 3.93996 13.3592 4.61269 12.8631 5.1088C12.367 5.60491 11.6942 5.88383 10.9926 5.8843ZM10.9926 1.18938C10.5869 1.18938 10.1903 1.30969 9.85295 1.5351C9.51561 1.7605 9.25269 2.08088 9.09742 2.45571C8.94216 2.83055 8.90154 3.24301 8.98069 3.64093C9.05984 4.03885 9.25521 4.40437 9.5421 4.69126C9.82899 4.97814 10.1945 5.17352 10.5924 5.25267C10.9903 5.33182 11.4028 5.2912 11.7776 5.13593C12.1525 4.98067 12.4728 4.71775 12.6983 4.3804C12.9237 4.04306 13.044 3.64645 13.044 3.24073C13.044 2.69668 12.8278 2.17491 12.4431 1.79021C12.0584 1.40551 11.5367 1.18938 10.9926 1.18938Z" fill="#FF5E03"/>
<path d="M14.143 14.9838H13.5597C13.4808 14.9838 13.4052 14.9525 13.3495 14.8967C13.2937 14.841 13.2624 14.7654 13.2624 14.6865C13.2624 14.6077 13.2937 14.532 13.3495 14.4763C13.4052 14.4205 13.4808 14.3892 13.5597 14.3892H14.1427C14.4475 14.3889 14.7397 14.2677 14.9553 14.0521C15.1708 13.8366 15.292 13.5444 15.2923 13.2396V8.56218C15.2919 8.21239 15.1528 7.87705 14.9055 7.62963C14.6583 7.38221 14.323 7.24289 13.9732 7.24218H8.02728C7.67729 7.24257 7.34174 7.38176 7.09423 7.62921C6.84672 7.87667 6.70746 8.21219 6.70698 8.56218V13.241C6.70769 13.5457 6.82921 13.8377 7.0449 14.053C7.26058 14.2682 7.55282 14.3891 7.85752 14.3892H8.41942C8.49826 14.3892 8.57388 14.4205 8.62964 14.4763C8.68539 14.532 8.71671 14.6077 8.71671 14.6865C8.71671 14.7654 8.68539 14.841 8.62964 14.8967C8.57388 14.9525 8.49826 14.9838 8.41942 14.9838H7.85752C7.39507 14.9833 6.95169 14.7994 6.62468 14.4724C6.29767 14.1454 6.11375 13.702 6.11328 13.2396V8.56218C6.11391 8.05469 6.31575 7.56816 6.67454 7.20926C7.03333 6.85036 7.5198 6.64837 8.02728 6.64758H13.9732C14.4809 6.64813 14.9676 6.85002 15.3265 7.20895C15.6855 7.56787 15.8875 8.05454 15.8881 8.56218V13.241C15.8873 13.7034 15.703 14.1465 15.3759 14.4732C15.0487 14.8 14.6053 14.9836 14.143 14.9838Z" fill="#FF5E03"/>
<path d="M12.2749 21.4052C11.8582 21.4048 11.4587 21.239 11.164 20.9443C10.8694 20.6497 10.7036 20.2501 10.7031 19.8334V14.8795C10.7031 14.8007 10.7344 14.7251 10.7902 14.6693C10.846 14.6136 10.9216 14.5823 11.0004 14.5823C11.0793 14.5823 11.1549 14.6136 11.2106 14.6693C11.2664 14.7251 11.2977 14.8007 11.2977 14.8795V19.8334C11.2977 20.0926 11.4007 20.3411 11.5839 20.5244C11.7672 20.7077 12.0158 20.8106 12.2749 20.8106C12.5341 20.8106 12.7827 20.7077 12.9659 20.5244C13.1492 20.3411 13.2522 20.0926 13.2522 19.8334V10.4427C13.2522 10.3638 13.2835 10.2882 13.3392 10.2325C13.395 10.1767 13.4706 10.1454 13.5495 10.1454C13.6283 10.1454 13.7039 10.1767 13.7597 10.2325C13.8154 10.2882 13.8468 10.3638 13.8468 10.4427V19.8334C13.8463 20.2501 13.6805 20.6497 13.3859 20.9443C13.0912 21.239 12.6917 21.4048 12.2749 21.4052Z" fill="#FF5E03"/>
<path d="M9.72611 21.4052C9.30938 21.4048 8.90986 21.239 8.61519 20.9443C8.32052 20.6497 8.15477 20.2501 8.1543 19.8334V10.4427C8.1543 10.3638 8.18562 10.2882 8.24137 10.2325C8.29713 10.1767 8.37275 10.1454 8.45159 10.1454C8.53044 10.1454 8.60606 10.1767 8.66181 10.2325C8.71757 10.2882 8.74889 10.3638 8.74889 10.4427V19.8334C8.74889 20.0926 8.85185 20.3411 9.03511 20.5244C9.21837 20.7077 9.46693 20.8106 9.72611 20.8106C9.98528 20.8106 10.2338 20.7077 10.4171 20.5244C10.6004 20.3411 10.7033 20.0926 10.7033 19.8334V14.8795C10.7033 14.8007 10.7346 14.7251 10.7904 14.6693C10.8462 14.6136 10.9218 14.5823 11.0006 14.5823C11.0795 14.5823 11.1551 14.6136 11.2108 14.6693C11.2666 14.7251 11.2979 14.8007 11.2979 14.8795V19.8334C11.2974 20.2501 11.1317 20.6497 10.837 20.9443C10.5424 21.239 10.1428 21.4048 9.72611 21.4052Z" fill="#FF5E03"/>
</svg>
