<svg width="16" height="16" viewBox="0 0 16 16" fill="none" xmlns="http://www.w3.org/2000/svg">
<path d="M0.770487 6.57089C2.54296 10.4336 5.69686 13.5047 9.61801 15.1695L10.2466 15.4498C11.6846 16.0908 13.3751 15.6038 14.2522 14.2957L15.0736 13.0707C15.3406 12.6724 15.2593 12.1359 14.8863 11.8348L12.1006 9.58616C11.6915 9.25588 11.0898 9.3328 10.7768 9.75542L9.91504 10.9189C7.70379 9.82753 5.90851 8.0312 4.81774 5.81864L5.98057 4.95639C6.40294 4.6432 6.47982 4.04119 6.14973 3.63179L3.90236 0.844413C3.60144 0.4712 3.06546 0.389791 2.66742 0.656845L1.43468 1.48391C0.119157 2.36651 -0.364917 4.07196 0.290587 5.51467L0.769766 6.56932L0.770487 6.57089Z" fill="#364D71"/>
</svg>
