<svg width="15" height="24" viewBox="0 0 15 24" fill="none" xmlns="http://www.w3.org/2000/svg">
<path d="M6.23522 0H8.94638V3.18447C10.4584 3.40885 11.701 3.96979 12.6742 4.86731C13.6475 5.74757 14.3079 6.76591 14.6555 7.92233H11.6836C11.4056 7.23193 10.8929 6.68824 10.1456 6.29126C9.39825 5.87702 8.52928 5.6699 7.53866 5.6699C6.44377 5.6699 5.59218 5.91154 4.98391 6.39482C4.37563 6.86084 4.0715 7.44768 4.0715 8.15534C4.0715 8.84574 4.3235 9.3808 4.82749 9.76052C5.33149 10.1402 6.13963 10.3991 7.2519 10.5372L9.181 10.7961C10.9363 11.0378 12.2658 11.5814 13.1695 12.4272C14.0907 13.2729 14.5512 14.3517 14.5512 15.6634C14.5512 16.9579 14.0472 18.1143 13.0392 19.1327C12.0486 20.1338 10.6843 20.712 8.94638 20.8673V24H6.23522V20.7896C3.41977 20.3064 1.59495 18.7357 0.760742 16.0777H3.75867C4.50598 17.562 5.9137 18.3042 7.98183 18.3042C9.09411 18.3042 9.98914 18.0798 10.6669 17.6311C11.3447 17.165 11.6836 16.5609 11.6836 15.8188C11.6836 15.1284 11.4229 14.5847 10.9016 14.1877C10.3802 13.7907 9.5199 13.5146 8.32073 13.3592L6.36556 13.1003C4.59287 12.8587 3.28943 12.315 2.45522 11.4693C1.62102 10.6063 1.20391 9.53614 1.20391 8.2589C1.20391 6.91262 1.64709 5.79072 2.53343 4.8932C3.43715 3.97843 4.67108 3.40022 6.23522 3.15858V0Z" fill="#DADFE5"/>
</svg>
