<svg width="14" height="24" viewBox="0 0 14 24" fill="none" xmlns="http://www.w3.org/2000/svg">
<path d="M5.47447 0H8.18564V3.18447C9.69764 3.40885 10.9403 3.96979 11.9135 4.86731C12.8867 5.74757 13.5472 6.76591 13.8947 7.92233H10.9229C10.6448 7.23193 10.1321 6.68824 9.38481 6.29126C8.6375 5.87702 7.76854 5.6699 6.77792 5.6699C5.68303 5.6699 4.83144 5.91154 4.22317 6.39482C3.61489 6.86084 3.31075 7.44768 3.31075 8.15534C3.31075 8.84574 3.56275 9.3808 4.06675 9.76052C4.57075 10.1402 5.37889 10.3991 6.49116 10.5372L8.42026 10.7961C10.1756 11.0378 11.5051 11.5814 12.4088 12.4272C13.3299 13.2729 13.7905 14.3517 13.7905 15.6634C13.7905 16.9579 13.2865 18.1143 12.2785 19.1327C11.2878 20.1338 9.92357 20.712 8.18564 20.8673V24H5.47447V20.7896C2.65903 20.3064 0.834206 18.7357 0 16.0777H2.99793C3.74524 17.562 5.15296 18.3042 7.22109 18.3042C8.33337 18.3042 9.2284 18.0798 9.90619 17.6311C10.584 17.165 10.9229 16.5609 10.9229 15.8188C10.9229 15.1284 10.6622 14.5847 10.1408 14.1877C9.61943 13.7907 8.75916 13.5146 7.55999 13.3592L5.60482 13.1003C3.83213 12.8587 2.52869 12.315 1.69448 11.4693C0.860274 10.6063 0.443172 9.53614 0.443172 8.2589C0.443172 6.91262 0.886343 5.79072 1.77269 4.8932C2.67641 3.97843 3.91034 3.40022 5.47447 3.15858V0Z" fill="#FF5E03"/>
</svg>
